<svg width="28" height="26" viewBox="0 0 28 26" fill="none" xmlns="http://www.w3.org/2000/svg">
<g opacity="0.5">
<path opacity="0.4" fill-rule="evenodd" clip-rule="evenodd" d="M5.91058 22.5885C5.91058 21.7485 6.59058 21.0685 7.43058 21.0685C8.26058 21.0685 8.94058 21.7485 8.94058 22.5885C8.94058 23.4185 8.26058 24.0985 7.43058 24.0985C6.59058 24.0985 5.91058 23.4185 5.91058 22.5885ZM17.1606 22.5885C17.1606 21.7485 17.8406 21.0685 18.6806 21.0685C19.5106 21.0685 20.1906 21.7485 20.1906 22.5885C20.1906 23.4185 19.5106 24.0985 18.6806 24.0985C17.8406 24.0985 17.1606 23.4185 17.1606 22.5885Z" fill="url(#paint0_linear_1_20)"/>
<path fill-rule="evenodd" clip-rule="evenodd" d="M20.1908 8.34903C20.8008 8.34903 21.2008 8.55903 21.6008 9.01903C22.0008 9.47903 22.0708 10.139 21.9808 10.738L21.0308 17.298C20.8508 18.559 19.7708 19.488 18.5008 19.488H7.5908C6.2608 19.488 5.1608 18.468 5.0508 17.149L4.1308 6.24803L2.6208 5.98803C2.2208 5.91803 1.9408 5.52803 2.0108 5.12803C2.0808 4.71803 2.4708 4.44803 2.8808 4.50803L5.2658 4.86803C5.6058 4.92903 5.8558 5.20803 5.8858 5.54803L6.0758 7.78803C6.1058 8.10903 6.3658 8.34903 6.6858 8.34903H20.1908ZM14.1308 13.548H16.9008C17.3208 13.548 17.6508 13.208 17.6508 12.798C17.6508 12.378 17.3208 12.048 16.9008 12.048H14.1308C13.7108 12.048 13.3808 12.378 13.3808 12.798C13.3808 13.208 13.7108 13.548 14.1308 13.548Z" fill="url(#paint1_linear_1_20)"/>
</g>
<circle cx="21.5" cy="6.5" r="6" fill="#FF4B4B" stroke="white"/>
<path d="M20.575 11L23.293 4.988L23.491 5.276H19.594L19.927 4.961V6.455H19.288V4.7H23.914V5.159L21.277 11H20.575Z" fill="white"/>
<defs>
<linearGradient id="paint0_linear_1_20" x1="5.91058" y1="20.8825" x2="16.9208" y2="28.922" gradientUnits="userSpaceOnUse">
<stop stop-color="#FF9300"/>
<stop offset="1" stop-color="#FF9300"/>
</linearGradient>
<linearGradient id="paint1_linear_1_20" x1="2.00006" y1="3.57936" x2="24.6895" y2="8.27386" gradientUnits="userSpaceOnUse">
<stop stop-color="#FF9300"/>
<stop offset="1" stop-color="#FF9300"/>
</linearGradient>
</defs>
</svg>
